<svg xmlns="http://www.w3.org/2000/svg" width="128" height="128" viewBox="0 0 128 128">
  <rect width="128" height="128" rx="16" fill="#1a1a1a"/>
  <g transform="translate(64,58) scale(0.7)">
    <!-- Horns -->
    <path d="M-38,-30 C-42,-50 -30,-65 -20,-55 L-15,-35" fill="none" stroke="#e0e0e0" stroke-width="5" stroke-linecap="round"/>
    <path d="M38,-30 C42,-50 30,-65 20,-55 L15,-35" fill="none" stroke="#e0e0e0" stroke-width="5" stroke-linecap="round"/>
    <!-- Helmet -->
    <ellipse cx="0" cy="-25" rx="30" ry="18" fill="none" stroke="#e0e0e0" stroke-width="4"/>
    <line x1="-30" y1="-20" x2="30" y2="-20" stroke="#e0e0e0" stroke-width="3"/>
    <!-- Yellow diamond -->
    <polygon points="0,-32 6,-25 0,-18 -6,-25" fill="#d4a017"/>
    <!-- Face -->
    <ellipse cx="-12" cy="-8" rx="6" ry="5" fill="none" stroke="#e0e0e0" stroke-width="3"/>
    <line x1="8" y1="-12" x2="26" y2="-8" stroke="#e0e0e0" stroke-width="3" stroke-linecap="round"/>
    <line x1="8" y1="-4" x2="24" y2="-6" stroke="#e0e0e0" stroke-width="3" stroke-linecap="round"/>
    <!-- Beard -->
    <path d="M-18,2 C-20,30 -10,45 0,48 C10,45 20,30 18,2" fill="none" stroke="#e0e0e0" stroke-width="4"/>
    <path d="M-8,5 C-6,30 -2,40 0,42 C2,40 6,30 8,5" fill="none" stroke="#e0e0e0" stroke-width="3"/>
  </g>
</svg>